<?xml version="1.0" encoding="UTF-8"?>
<!DOCTYPE svg PUBLIC "-//W3C//DTD SVG 1.1//EN" "http://www.w3.org/Graphics/SVG/1.1/DTD/svg11.dtd">
<!-- Creator: CorelDRAW -->
<svg xmlns="http://www.w3.org/2000/svg" xml:space="preserve" width="224.896mm" height="79.375mm" style="shape-rendering:geometricPrecision; text-rendering:geometricPrecision; image-rendering:optimizeQuality; fill-rule:evenodd; clip-rule:evenodd"
viewBox="0 0 224.896 79.375"
 xmlns:xlink="http://www.w3.org/1999/xlink">
 <defs>
  <style type="text/css">
   <![CDATA[
    .fil1 {fill:#ffffff;fill-rule:nonzero}
    .fil0 {fill:url(#id0)}
   ]]>
  </style>
  <linearGradient id="id0" gradientUnits="userSpaceOnUse" x1="38.924" y1="2.7" x2="38.924" y2="76.675">
   <stop offset="0" style="stop-color:#ffffff"/>
   <stop offset="1" style="stop-color:#ffffff"/>
  </linearGradient>
 </defs>
 <g id="Camada_x0020_1">
  <metadata id="CorelCorpID_0Corel-Layer"/>
  <g id="_264003864">
   <path id="_264007224" class="fil0" d="M25.4342 2.7l42.5582 0 0 73.975 -58.1368 0 0 -58.3964c0,-8.5683 7.0103,-15.5786 15.5786,-15.5786zm6.3526 11.9063l23.2405 0 0 5.5802 0 1.8051 0 12.6536 0 2.21 0 5.1753 -22.709 0 -1.1087 0 0 0.0092 -6.8734 0.0567 0 -20.0395c0,-4.0979 3.3527,-7.4506 7.4506,-7.4506zm-0.5772 30.9394l0 16.1564 -6.8734 0 0 -19.3411 6.8734 3.1847zm16.9443 -23.5541l-13.727 0c-1.7691,0 -3.2173,1.4482 -3.2173,3.2173l0 9.4363 16.9443 0 0 -12.6536z"/>
   <g>
    <path id="_264006168" class="fil1" d="M84.4493 41.9654l0 12.6511 -7.4833 0 0 -36.29 12.0879 0c8.737,0 13.1016,3.8225 13.1016,11.4756 0,3.7185 -1.3155,6.7014 -3.9545,8.9405 -2.6388,2.2392 -5.9355,3.3187 -9.8977,3.2228l-3.854 0zm0 -17.6412l0 11.7155 3.2426 0c4.4034,0 6.6011,-1.9753 6.6011,-5.9258 0,-3.8625 -2.1824,-5.7897 -6.5315,-5.7897l-3.3122 0zm43.8244 30.2923l-20.7939 0 0 -36.29 19.9736 0 0 6.3256 -12.4903 0 0 8.5487 11.6081 0 0 6.3015 -11.6081 0 0 8.7886 13.3106 0 0 6.3256zm34.7391 0l-8.6209 0 -5.5099 -9.4444c-1.1299,-1.9512 -2.0585,-3.2067 -2.786,-3.7665 -0.7274,-0.5678 -1.4935,-0.8477 -2.3139,-0.8477l-2.2674 0 0 14.0586 -7.4834 0 0 -36.29 12.3124 0c8.3577,0 12.5367,3.2787 12.5367,9.8362 0,2.471 -0.6965,4.5902 -2.0972,6.3496 -1.393,1.7673 -3.32,3.0068 -5.7654,3.7265l0 0.096c1.6175,0.5598 3.4051,2.407 5.3707,5.5258l6.6243 10.7559zm-21.4981 -30.4123l0 10.452 3.6758 0c1.749,0 3.1652,-0.5278 4.2255,-1.5834 1.0678,-1.0556 1.6018,-2.3671 1.6018,-3.9505 0,-3.2787 -1.8959,-4.9181 -5.6957,-4.9181l-3.8074 0zm45.7281 30.4123l-20.7939 0 0 -36.29 19.9736 0 0 6.3256 -12.4903 0 0 8.5487 11.6081 0 0 6.3015 -11.6081 0 0 8.7886 13.3106 0 0 6.3256zm4.148 -9.1405c2.8324,2.4231 6.0439,3.6386 9.6425,3.6386 2.0352,0 3.5675,-0.3678 4.5968,-1.0956 1.0292,-0.7277 1.5399,-1.6553 1.5399,-2.7989 0,-0.9836 -0.4024,-1.9112 -1.2227,-2.7829 -0.8126,-0.8797 -2.9717,-2.0632 -6.4618,-3.5666 -5.4868,-2.4071 -8.2263,-5.9018 -8.2263,-10.492 0,-3.3747 1.2382,-5.9977 3.7301,-7.861 2.4841,-1.8712 5.7731,-2.7989 9.8746,-2.7989 3.4283,0 6.307,0.4559 8.6364,1.3835l0 7.2612c-2.3602,-1.6554 -5.1152,-2.487 -8.2727,-2.487 -1.8496,0 -3.3199,0.3518 -4.4265,1.0475 -1.0989,0.6958 -1.6561,1.6234 -1.6561,2.799 0,0.9356 0.3792,1.7993 1.1376,2.583 0.7584,0.7917 2.6234,1.8553 5.5951,3.1987 3.4979,1.5514 5.8969,3.1828 7.2048,4.9022 1.3078,1.7113 1.9578,3.7585 1.9578,6.1336 0,3.4866 -1.1917,6.1416 -3.583,7.9649 -2.3835,1.8313 -5.7809,2.743 -10.1764,2.743 -4.0242,0 -7.3209,-0.6718 -9.8901,-2.0153l0 -7.757z"/>
    <path id="_264004416" class="fil1" d="M76.8157 69.7597l0 -10.4134 3.5796 0c1.097,0 1.9431,0.2157 2.536,0.6448 0.5952,0.4314 0.8927,1.0257 0.8927,1.7876 0,0.5668 -0.1843,1.0601 -0.5529,1.487 -0.3686,0.4245 -0.8327,0.7182 -1.3924,0.8811l0 0.0253c0.7017,0.0895 1.268,0.3602 1.701,0.8077 0.4308,0.4475 0.6462,1.0097 0.6462,1.6866 0,0.9454 -0.3242,1.6981 -0.9749,2.2557 -0.6505,0.5576 -1.5388,0.8376 -2.6669,0.8376l-3.7684 0zm2.1473 -8.7589l0 2.5746 1.0215 0c0.4908,0 0.8772,-0.1216 1.1592,-0.3648 0.282,-0.241 0.4219,-0.5783 0.4219,-1.0143 0,-0.7985 -0.564,-1.1955 -1.6921,-1.1955l-0.9105 0zm0 4.2475l0 2.8569 1.2747 0c0.544,0 0.966,-0.1285 1.2724,-0.3901 0.3064,-0.2593 0.4597,-0.6196 0.4597,-1.0808 0,-0.4406 -0.1533,-0.7802 -0.4552,-1.0234 -0.3043,-0.241 -0.7351,-0.3626 -1.2947,-0.3626l-1.2569 0zm13.4814 4.5114l-2.0873 0 0 -1.1359 -0.0333 0c-0.5375,0.8789 -1.2725,1.3172 -2.2052,1.3172 -1.6743,0 -2.5115,-1.0441 -2.5115,-3.1323l0 -4.4839 2.1008 0 0 4.282c0,1.1106 0.4219,1.6682 1.2635,1.6682 0.4197,0 0.755,-0.1537 1.0082,-0.4589 0.2509,-0.3052 0.3775,-0.716 0.3775,-1.2369l0 -4.2544 2.0873 0 0 7.4349zm1.7189 -1.9964c0.7195,0.4521 1.4234,0.6792 2.114,0.6792 0.8661,0 1.3012,-0.2409 1.3012,-0.7205 0,-0.3396 -0.3574,-0.6242 -1.0747,-0.8536 -0.8927,-0.2869 -1.5056,-0.6058 -1.8409,-0.9569 -0.3331,-0.3534 -0.4996,-0.8284 -0.4996,-1.4296 0,-0.7298 0.2864,-1.3034 0.8571,-1.7165 0.573,-0.4153 1.3235,-0.6219 2.2518,-0.6219 0.6595,0 1.2946,0.101 1.9074,0.3006l0 1.7096c-0.5595,-0.3419 -1.1769,-0.5117 -1.8498,-0.5117 -0.3331,0 -0.6017,0.0619 -0.806,0.1859 -0.2044,0.1216 -0.3064,0.2845 -0.3064,0.4864 0,0.3397 0.3042,0.6173 0.9126,0.8261 0.6507,0.2249 1.1392,0.4291 1.4656,0.6127 0.3286,0.1836 0.5774,0.4245 0.7483,0.7252 0.171,0.3006 0.2576,0.6494 0.2576,1.0418 0,0.7664 -0.2975,1.363 -0.8903,1.7852 -0.5952,0.4246 -1.3879,0.6357 -2.3829,0.6357 -0.7793,0 -1.5011,-0.1285 -2.165,-0.3832l0 -1.7945zm6.5775 -7.8388c0,-0.3327 0.1133,-0.6012 0.342,-0.81 0.2265,-0.2088 0.5174,-0.3121 0.8749,-0.3121 0.3642,0 0.6573,0.1056 0.8838,0.319 0.2265,0.2134 0.3376,0.4796 0.3376,0.8031 0,0.3259 -0.1133,0.599 -0.3442,0.817 -0.2288,0.218 -0.5219,0.3258 -0.8772,0.3258 -0.3531,0 -0.644,-0.1101 -0.8726,-0.3304 -0.231,-0.218 -0.3443,-0.4911 -0.3443,-0.8124zm0.1555 9.8352l0 -7.4349 2.094 0 0 7.4349 -2.094 0zm10.8122 0l-2.0897 0 0 -4.1488c0,-1.2002 -0.4174,-1.8014 -1.2546,-1.8014 -0.3997,0 -0.7305,0.1606 -0.9948,0.4819 -0.2643,0.319 -0.3975,0.7297 -0.3975,1.2254l0 4.2429 -2.1008 0 0 -7.4349 2.1008 0 0 1.1818 0.0267 0c0.524,-0.9087 1.2968,-1.3631 2.3161,-1.3631 1.5944,0 2.3938,1.0212 2.3938,3.0658l0 4.5504zm8.1852 -3.107l-4.7365 0c0.0732,1.1519 0.7461,1.7279 2.0163,1.7279 0.7927,0 1.4944,-0.1997 2.1007,-0.6035l0 1.5925c-0.655,0.3809 -1.5122,0.5714 -2.576,0.5714 -1.1436,0 -2.034,-0.3328 -2.6691,-1.0005 -0.6373,-0.6678 -0.9549,-1.5994 -0.9549,-2.7904 0,-1.1887 0.3397,-2.1524 1.0148,-2.8936 0.6773,-0.7435 1.5278,-1.113 2.5516,-1.113 1.0192,0 1.8164,0.319 2.3894,0.9569 0.5751,0.638 0.8637,1.5168 0.8637,2.6321l0 0.9202zm-1.9585 -1.3562c0,-1.113 -0.4375,-1.6683 -1.308,-1.6683 -0.3597,0 -0.6795,0.1538 -0.9571,0.4567 -0.2776,0.3052 -0.4508,0.709 -0.5196,1.2116l2.7847 0zm3.1356 2.4668c0.7195,0.4521 1.4234,0.6792 2.1139,0.6792 0.8661,0 1.3013,-0.2409 1.3013,-0.7205 0,-0.3396 -0.3574,-0.6242 -1.0747,-0.8536 -0.8927,-0.2869 -1.5056,-0.6058 -1.8409,-0.9569 -0.3331,-0.3534 -0.4996,-0.8284 -0.4996,-1.4296 0,-0.7298 0.2864,-1.3034 0.8571,-1.7165 0.573,-0.4153 1.3235,-0.6219 2.2517,-0.6219 0.6595,0 1.2947,0.101 1.9075,0.3006l0 1.7096c-0.5595,-0.3419 -1.1769,-0.5117 -1.8498,-0.5117 -0.3331,0 -0.6017,0.0619 -0.806,0.1859 -0.2044,0.1216 -0.3065,0.2845 -0.3065,0.4864 0,0.3397 0.3043,0.6173 0.9127,0.8261 0.6507,0.2249 1.1392,0.4291 1.4656,0.6127 0.3286,0.1836 0.5774,0.4245 0.7483,0.7252 0.171,0.3006 0.2576,0.6494 0.2576,1.0418 0,0.7664 -0.2975,1.363 -0.8904,1.7852 -0.5951,0.4246 -1.3879,0.6357 -2.3828,0.6357 -0.7794,0 -1.5011,-0.1285 -2.165,-0.3832l0 -1.7945zm6.5775 0c0.7195,0.4521 1.4234,0.6792 2.114,0.6792 0.8661,0 1.3013,-0.2409 1.3013,-0.7205 0,-0.3396 -0.3575,-0.6242 -1.0748,-0.8536 -0.8927,-0.2869 -1.5055,-0.6058 -1.8408,-0.9569 -0.3331,-0.3534 -0.4997,-0.8284 -0.4997,-1.4296 0,-0.7298 0.2865,-1.3034 0.8571,-1.7165 0.573,-0.4153 1.3236,-0.6219 2.2518,-0.6219 0.6595,0 1.2946,0.101 1.9075,0.3006l0 1.7096c-0.5596,-0.3419 -1.177,-0.5117 -1.8498,-0.5117 -0.3331,0 -0.6017,0.0619 -0.806,0.1859 -0.2044,0.1216 -0.3065,0.2845 -0.3065,0.4864 0,0.3397 0.3042,0.6173 0.9126,0.8261 0.6507,0.2249 1.1392,0.4291 1.4656,0.6127 0.3287,0.1836 0.5775,0.4245 0.7484,0.7252 0.171,0.3006 0.2576,0.6494 0.2576,1.0418 0,0.7664 -0.2976,1.363 -0.8904,1.7852 -0.5952,0.4246 -1.3879,0.6357 -2.3828,0.6357 -0.7794,0 -1.5011,-0.1285 -2.1651,-0.3832l0 -1.7945zm13.0818 -8.417l0 10.4134 -2.1474 0 0 -10.4134 2.1474 0zm8.9603 10.4134l-2.0897 0 0 -4.1488c0,-1.2002 -0.4174,-1.8014 -1.2546,-1.8014 -0.3997,0 -0.7305,0.1606 -0.9948,0.4819 -0.2643,0.319 -0.3975,0.7297 -0.3975,1.2254l0 4.2429 -2.1008 0 0 -7.4349 2.1008 0 0 1.1818 0.0267 0c0.524,-0.9087 1.2968,-1.3631 2.3161,-1.3631 1.5944,0 2.3938,1.0212 2.3938,3.0658l0 4.5504zm6.0312 -0.0872c-0.3175,0.179 -0.795,0.2685 -1.4389,0.2685 -1.5256,0 -2.2895,-0.8284 -2.2895,-2.4875l0 -3.5086 -1.1836 0 0 -1.6201 1.1836 0 0 -1.6338 2.0896 -0.6196 0 2.2534 1.6388 0 0 1.6201 -1.6388 0 0 3.1323c0,0.7939 0.302,1.1909 0.9105,1.1909 0.2331,0 0.4774,-0.0734 0.7283,-0.2157l0 1.6201zm7.6123 -3.0198l-4.7365 0c0.0732,1.1519 0.7461,1.7279 2.0163,1.7279 0.7927,0 1.4944,-0.1997 2.1007,-0.6035l0 1.5925c-0.655,0.3809 -1.5122,0.5714 -2.5759,0.5714 -1.1437,0 -2.0341,-0.3328 -2.6692,-1.0005 -0.6373,-0.6678 -0.9549,-1.5994 -0.9549,-2.7904 0,-1.1887 0.3397,-2.1524 1.0148,-2.8936 0.6773,-0.7435 1.5278,-1.113 2.5516,-1.113 1.0192,0 1.8164,0.319 2.3894,0.9569 0.5751,0.638 0.8637,1.5168 0.8637,2.6321l0 0.9202zm-1.9585 -1.3562c0,-1.113 -0.4375,-1.6683 -1.308,-1.6683 -0.3597,0 -0.6795,0.1538 -0.957,0.4567 -0.2777,0.3052 -0.4509,0.709 -0.5197,1.2116l2.7847 0zm3.291 4.4632l0 -11.0055 2.094 0 0 11.0055 -2.094 0zm3.9416 0l0 -11.0055 2.094 0 0 11.0055 -2.094 0zm3.7862 -9.8352c0,-0.3327 0.1132,-0.6012 0.342,-0.81 0.2264,-0.2088 0.5173,-0.3121 0.8749,-0.3121 0.3641,0 0.6572,0.1056 0.8838,0.319 0.2264,0.2134 0.3375,0.4796 0.3375,0.8031 0,0.3259 -0.1133,0.599 -0.3442,0.817 -0.2288,0.218 -0.5219,0.3258 -0.8771,0.3258 -0.3532,0 -0.644,-0.1101 -0.8727,-0.3304 -0.231,-0.218 -0.3442,-0.4911 -0.3442,-0.8124zm0.1554 9.8352l0 -7.4349 2.094 0 0 7.4349 -2.094 0zm10.9299 -0.8192c0,1.3791 -0.3819,2.4439 -1.1436,3.1896 -0.7595,0.7458 -1.8565,1.1199 -3.2888,1.1199 -0.9704,0 -1.7431,-0.1446 -2.3161,-0.4314l0 -1.8565c0.7462,0.4498 1.499,0.6724 2.2584,0.6724 0.7506,0 1.3368,-0.2065 1.761,-0.6219 0.4219,-0.413 0.6329,-0.989 0.6329,-1.7233l0 -0.6196 -0.0312 0c-0.5085,0.8491 -1.2635,1.2713 -2.265,1.2713 -0.906,0 -1.6322,-0.3328 -2.1762,-1.0005 -0.5441,-0.6678 -0.8173,-1.5627 -0.8173,-2.6825 0,-1.2507 0.3021,-2.2489 0.9017,-2.9969 0.6018,-0.7458 1.3901,-1.1176 2.365,-1.1176 0.8838,0 1.5477,0.3557 1.9918,1.0671l0.0312 0 0 -0.8858 2.0962 0 0 6.6157zm-2.0763 -3.3755c0,-0.4934 -0.1443,-0.9087 -0.4331,-1.2484 -0.2886,-0.3373 -0.6506,-0.5071 -1.0903,-0.5071 -0.5106,0 -0.9149,0.2088 -1.2124,0.6219 -0.2976,0.4153 -0.4463,0.9959 -0.4463,1.744 0,0.6517 0.1442,1.1634 0.4308,1.5374 0.2864,0.3741 0.6639,0.5622 1.137,0.5622 0.4773,0 0.866,-0.1904 1.1658,-0.5714 0.2998,-0.3832 0.4485,-0.8765 0.4485,-1.4869l0 -0.6517zm10.3636 1.0877l-4.7365 0c0.0732,1.1519 0.7461,1.7279 2.0163,1.7279 0.7927,0 1.4944,-0.1997 2.1007,-0.6035l0 1.5925c-0.655,0.3809 -1.5122,0.5714 -2.576,0.5714 -1.1436,0 -2.034,-0.3328 -2.6691,-1.0005 -0.6373,-0.6678 -0.9549,-1.5994 -0.9549,-2.7904 0,-1.1887 0.3397,-2.1524 1.0148,-2.8936 0.6773,-0.7435 1.5278,-1.113 2.5516,-1.113 1.0192,0 1.8164,0.319 2.3894,0.9569 0.5751,0.638 0.8637,1.5168 0.8637,2.6321l0 0.9202zm-1.9585 -1.3562c0,-1.113 -0.4375,-1.6683 -1.308,-1.6683 -0.3597,0 -0.6795,0.1538 -0.9571,0.4567 -0.2776,0.3052 -0.4508,0.709 -0.5196,1.2116l2.7847 0zm10.1617 4.4632l-2.0897 0 0 -4.1488c0,-1.2002 -0.4175,-1.8014 -1.2547,-1.8014 -0.3996,0 -0.7305,0.1606 -0.9948,0.4819 -0.2643,0.319 -0.3975,0.7297 -0.3975,1.2254l0 4.2429 -2.1007 0 0 -7.4349 2.1007 0 0 1.1818 0.0267 0c0.524,-0.9087 1.2968,-1.3631 2.3161,-1.3631 1.5944,0 2.3939,1.0212 2.3939,3.0658l0 4.5504zm7.1881 -0.2754c-0.5018,0.3052 -1.2169,0.4567 -2.1451,0.4567 -1.0992,0 -1.9853,-0.3442 -2.6626,-1.0349 -0.675,-0.6907 -1.0148,-1.5857 -1.0148,-2.6826 0,-1.2643 0.3642,-2.2603 1.0948,-2.9877 0.7284,-0.7297 1.6988,-1.0923 2.9135,-1.0923 0.8194,0 1.4278,0.1148 1.8209,0.3488l0 1.8633c-0.4797,-0.3648 -1.0059,-0.5461 -1.5745,-0.5461 -0.6417,0 -1.1569,0.2019 -1.5433,0.6058 -0.3886,0.4039 -0.584,0.9569 -0.584,1.6614 0,0.6792 0.1843,1.2162 0.553,1.6086 0.3686,0.3924 0.8704,0.5897 1.5033,0.5897 0.5596,0 1.1059,-0.1859 1.6388,-0.553l0 1.7623zm7.881 -2.8316l-4.7366 0c0.0733,1.1519 0.7461,1.7279 2.0164,1.7279 0.7927,0 1.4944,-0.1997 2.1007,-0.6035l0 1.5925c-0.6551,0.3809 -1.5123,0.5714 -2.576,0.5714 -1.1436,0 -2.034,-0.3328 -2.6691,-1.0005 -0.6374,-0.6678 -0.955,-1.5994 -0.955,-2.7904 0,-1.1887 0.3398,-2.1524 1.0149,-2.8936 0.6773,-0.7435 1.5278,-1.113 2.5515,-1.113 1.0192,0 1.8164,0.319 2.3894,0.9569 0.5751,0.638 0.8638,1.5168 0.8638,2.6321l0 0.9202zm-1.9586 -1.3562c0,-1.113 -0.4375,-1.6683 -1.3079,-1.6683 -0.3597,0 -0.6795,0.1538 -0.9571,0.4567 -0.2776,0.3052 -0.4508,0.709 -0.5197,1.2116l2.7847 0z"/>
   </g>
  </g>
 </g>
</svg>
